<svg width="144" height="24" viewBox="0 0 144 24" fill="none" xmlns="http://www.w3.org/2000/svg">
<path d="M82.5313 6.66268C84.8239 6.66268 86.591 7.83283 87.3075 8.88358V0.405966C87.3075 0.238802 87.403 0.0955238 87.5702 0.0238821C87.6179 1.4572e-06 87.6657 0 87.7373 0H91.4627C91.6298 0 91.7731 0.0955238 91.8448 0.262688C91.8687 0.310449 91.8687 0.358206 91.8687 0.429848V23.2358C91.8687 23.4507 91.6776 23.6418 91.4627 23.6418H87.8567C87.5701 23.6418 87.3075 23.403 87.3075 23.0925V21.7791C86.5672 22.8298 84.8239 24 82.5313 24C78.1134 24 74.7224 20.0358 74.7224 15.3313C74.7224 10.6269 78.1134 6.66268 82.5313 6.66268ZM79.3075 15.3313C79.3075 17.9104 81.003 19.8448 83.5104 19.8448C85.994 19.8448 87.6896 17.9104 87.6896 15.3313C87.6896 12.7522 85.994 10.8179 83.5104 10.8179C81.003 10.8179 79.3075 12.7522 79.3075 15.3313ZM68.2985 16.9313V11.4388C68.2985 11.3194 68.3463 11.2239 68.4179 11.1522C68.4896 11.0806 68.609 11.0328 68.7045 11.0328H71.9045C72.1194 11.0328 72.3104 10.8418 72.3104 10.6269V7.47462C72.3104 7.2597 72.1194 7.06866 71.9045 7.06866H68.7045C68.4657 7.06866 68.2985 6.87761 68.2985 6.66268V2.84179C68.2985 2.62686 68.1075 2.43582 67.8925 2.43582H64.1433C63.9761 2.43582 63.8328 2.53134 63.7612 2.6985C63.7373 2.74627 63.7373 2.81791 63.7373 2.86567C63.7373 6.82985 63.6418 7.04478 60.9194 7.06866C60.7761 7.06866 60.6328 7.11641 60.5373 7.23582C60.4418 7.33134 60.394 7.47463 60.3701 7.61791V10.4836C60.3701 10.6985 60.5134 10.8896 60.7045 10.9851C60.7761 11.009 60.8478 11.0328 60.8955 11.0328H63.3075C63.5463 11.0328 63.7134 11.2239 63.7134 11.4388V17.8149C63.7134 21.8746 66.5313 23.8328 70.0657 23.8328C70.9254 23.8567 71.809 23.7612 72.6448 23.5463C72.8358 23.4985 72.9552 23.3313 72.9552 23.1403V19.9881C72.9552 19.797 72.8119 19.6299 72.6209 19.5821C72.5493 19.5582 72.5015 19.5821 72.4298 19.5821C71.9761 19.6776 71.5463 19.7254 71.0925 19.7254C69.1582 19.7493 68.2985 18.9373 68.2985 16.9313ZM24.0478 15.3313C24.0478 10.4119 27.7254 6.66268 32.7881 6.66268C37.1343 6.66268 40.9552 9.45672 40.9791 14.8299C40.9791 15.1403 40.9791 15.4985 40.9552 16C40.9313 16.2149 40.7642 16.3821 40.5493 16.3821H28.4896C28.7522 18.603 30.7104 19.8448 32.9075 19.8448C34.7701 19.8448 36.1791 19.0567 36.9672 18.0776C37.1104 17.9104 37.3493 17.8866 37.5164 18.006L40.2627 20.0358C40.406 20.1313 40.4537 20.2985 40.406 20.4657C40.406 20.5134 40.3821 20.5612 40.3343 20.609C38.7821 22.6388 36.1791 24 32.8597 24C27.8925 24 24.0478 20.5851 24.0478 15.3313ZM32.6687 10.4119C30.9731 10.4119 29.0627 11.2716 28.6328 13.3015H36.4179C36.0119 11.3433 34.3642 10.4119 32.6687 10.4119ZM53.9701 7.04478H58.3642C58.5075 7.04478 58.6507 7.1403 58.7224 7.2597C58.794 7.40298 58.794 7.54626 58.6985 7.68955L53.6358 15.2597C53.5403 15.403 53.5403 15.594 53.6358 15.7373L58.794 22.9731C58.9851 23.2358 58.794 23.6179 58.4597 23.6179H54.0657C53.9463 23.6179 53.803 23.5463 53.7313 23.4507L50.3881 18.6985L47.0448 23.4507C46.9731 23.5463 46.8537 23.6179 46.7104 23.6179H42.2925C42.1254 23.6179 42.006 23.5224 41.9343 23.3791C41.8627 23.2358 41.8866 23.0687 41.9582 22.9493L47.1403 15.7134C47.2358 15.5701 47.2358 15.3791 47.1403 15.2358L42.0776 7.66567C41.9582 7.47463 42.006 7.18806 42.197 7.06866C42.2687 7.0209 42.3403 7.02089 42.4119 7.02089H46.7582C46.9015 7.02089 47.0209 7.09253 47.0925 7.21194L50.3403 12.1075L53.5881 7.21194C53.7075 7.09253 53.8269 7.04478 53.9701 7.04478ZM141.731 6.82985C139.869 6.82985 138.173 8.04776 137.6 9.67164V7.42687C137.6 7.21194 137.409 7.02089 137.194 7.02089H133.469C133.23 7.02089 133.063 7.21194 133.063 7.42687V23.1881C133.063 23.403 133.254 23.594 133.469 23.594H137.194C137.409 23.594 137.6 23.403 137.6 23.1881V15.6657C137.6 12.9433 139.033 11.2478 141.182 11.2478C141.707 11.2478 142.233 11.3194 142.734 11.4627C142.925 11.5104 143.116 11.4149 143.212 11.2478C143.236 11.2 143.26 11.1284 143.26 11.0567V7.30746C143.26 7.11642 143.116 6.92537 142.925 6.90149C142.543 6.87761 142.137 6.82985 141.731 6.82985ZM94.1373 15.3313C94.1373 10.4836 98.0537 6.66268 102.878 6.66268C107.701 6.66268 111.618 10.4597 111.618 15.3313C111.618 20.1791 107.701 24 102.878 24C98.0537 24 94.1373 20.1791 94.1373 15.3313ZM98.7224 15.3313C98.7224 17.8866 100.49 19.7492 102.878 19.7492C105.266 19.7492 107.009 17.8866 107.009 15.3313C107.009 12.7761 105.29 10.9134 102.878 10.9134C100.49 10.9134 98.7224 12.7761 98.7224 15.3313ZM122.054 6.66268C117.23 6.66268 113.313 10.4836 113.313 15.3313C113.313 20.1791 117.23 24 122.054 24C126.878 24 130.794 20.1791 130.794 15.3313C130.794 10.4836 126.878 6.66268 122.054 6.66268ZM122.054 19.7492C119.666 19.7492 117.899 17.8866 117.899 15.3313C117.899 12.7761 119.666 10.9134 122.054 10.9134C124.442 10.9134 126.185 12.7761 126.185 15.3313C126.185 17.8866 124.442 19.7492 122.054 19.7492ZM6.25672 10.0537C7.71343 7.8806 10.3403 6.47164 13.397 6.47164C18.1254 6.47164 21.7791 9.86268 21.7791 14.1851V23.2358C21.7791 23.4507 21.5881 23.6418 21.3731 23.6418H17.6C17.3612 23.6418 17.194 23.4507 17.194 23.2358V14.8299C17.194 12.9672 15.7612 10.8418 13.397 10.8418C10.9134 10.8418 9.6 12.9672 9.6 14.8299V23.2358C9.6 23.4746 9.40895 23.6418 9.19403 23.6418H5.4209C5.25373 23.6418 5.11045 23.5463 5.03881 23.3791C5.01492 23.3313 5.01493 23.2836 5.01493 23.2119V15.0687C5.01493 14.8299 4.84776 14.6149 4.60895 14.5433C1.28955 13.6358 0.0716418 11.1045 0 7.47462C0 7.30746 0.0955225 7.16417 0.262687 7.09253C0.310448 7.06865 0.358209 7.06866 0.429851 7.06866H3.39104V7.09253H4.29851C4.51343 7.09253 4.70448 7.2597 4.70448 7.49851C4.75224 8.9791 5.03881 9.79104 5.73134 10.197C5.89851 10.2925 6.13731 10.2448 6.25672 10.0537Z" fill="white"/>
</svg>
