<svg width="69" height="61" viewBox="0 0 69 61" fill="none" xmlns="http://www.w3.org/2000/svg">
<path d="M26.9167 44V3.92857C25.3333 2.35714 20.5833 0 14.25 0C7.91667 0 2.10781 2.09196 0 3.14286V44C2.10781 42.9491 9.18333 40.8571 14.25 40.8571C19.3167 40.8571 26.9167 44 26.9167 44ZM30.0833 44C30.0833 44 37.6833 40.8571 42.75 40.8571C47.8167 40.8571 54.8922 42.9491 57 44V3.14286C54.8922 2.09196 49.0833 0 42.75 0C36.4167 0 31.6667 2.35714 30.0833 3.92857V44Z" fill="#00A3FF"/>
<g clip-path="url(#clip0_805_3496)">
<circle cx="54.5" cy="41.5687" r="19.5" fill="#F8F6EE"/>
<path d="M54 26.0687C45.716 26.0687 39 32.7847 39 41.0687C39 49.3527 45.716 56.0687 54 56.0687C62.284 56.0687 69 49.3527 69 41.0687C69 32.7847 62.284 26.0687 54 26.0687ZM60.6211 38.3148L53.1211 45.8148C52.5703 46.3656 51.6797 46.3656 51.1348 45.8148L47.3848 42.0648C46.834 41.514 46.834 40.6234 47.3848 40.0785C47.9355 39.5336 48.8262 39.5277 49.3711 40.0785L52.125 42.8324L58.6289 36.3226C59.1797 35.7719 60.0703 35.7719 60.6152 36.3226C61.1602 36.8734 61.166 37.764 60.6152 38.309L60.6211 38.3148Z" fill="#FFB033"/>
</g>
<defs>
<clipPath id="clip0_805_3496">
<rect width="34" height="45" fill="white" transform="translate(35 16)"/>
</clipPath>
</defs>
</svg>
