<svg width="63" height="59" viewBox="0 0 63 59" fill="none" xmlns="http://www.w3.org/2000/svg">
<path d="M7.79817 18.4707L8.74276 20.0402C9.57682 21.4279 10.9435 22.452 12.5613 22.8922L18.3796 24.4713C20.108 24.9402 21.2938 26.4428 21.2938 28.1559V31.9744C21.2938 33.0271 21.9168 33.9842 22.9016 34.4531C23.8863 34.9221 24.5094 35.8791 24.5094 36.9318V40.6643C24.5094 42.1572 26.0067 43.2387 27.514 42.8271C29.1318 42.3869 30.3879 41.1523 30.7999 39.5924L31.0813 38.5205C31.5034 36.9031 32.6087 35.5154 34.1261 34.6924L34.9401 34.2521C36.4474 33.4387 37.3719 31.9074 37.3719 30.2613V29.467C37.3719 28.2516 36.8594 27.084 35.955 26.2227L35.5631 25.8494C34.6587 24.9881 33.4327 24.5 32.1565 24.5H27.8255C26.7101 24.5 25.6047 24.2225 24.63 23.6961L21.1631 21.8107C20.731 21.5715 20.3994 21.1887 20.2386 20.7389C19.9171 19.8201 20.3492 18.8248 21.2636 18.3941L21.8565 18.107C22.5197 17.7912 23.2935 17.7338 23.9969 17.9635L26.3282 18.7004C27.1522 18.9588 28.0566 18.6621 28.5289 17.9826C29.0012 17.3127 28.951 16.4227 28.4083 15.8006L27.0417 14.2406C26.0368 13.0922 26.0468 11.4174 27.0718 10.2881L28.6495 8.53672C29.5338 7.55098 29.6745 6.14414 29.0012 5.02441L28.76 4.62246C28.4083 4.60332 28.0667 4.59375 27.715 4.59375C18.3896 4.59375 10.4812 10.4221 7.79817 18.4707ZM48.6266 24.5C48.6266 20.9781 47.6619 17.6668 45.9737 14.7861L43.4012 15.7719C41.8235 16.3748 41.0096 18.0496 41.5421 19.5809L43.2404 24.433C43.5921 25.4283 44.4463 26.1844 45.5114 26.4332L48.4356 27.1318C48.5562 26.2705 48.6165 25.39 48.6165 24.5H48.6266ZM2 24.5C2 18.0022 4.71031 11.7705 9.53468 7.17588C14.3591 2.58124 20.9023 0 27.725 0C34.5477 0 41.091 2.58124 45.9153 7.17588C50.7397 11.7705 53.45 18.0022 53.45 24.5C53.45 30.9978 50.7397 37.2295 45.9153 41.8241C41.091 46.4188 34.5477 49 27.725 49C20.9023 49 14.3591 46.4188 9.53468 41.8241C4.71031 37.2295 2 30.9978 2 24.5Z" fill="#00A3FF"/>
<g clip-path="url(#clip0_805_3523)">
<circle cx="48.5" cy="44.5" r="19.5" fill="#F8F6EE"/>
</g>
<g clip-path="url(#clip1_805_3523)">
<path d="M48 29C39.716 29 33 35.716 33 44C33 52.284 39.716 59 48 59C56.284 59 63 52.284 63 44C63 35.716 56.284 29 48 29ZM54.6211 41.2461L47.1211 48.7461C46.5703 49.2969 45.6797 49.2969 45.1348 48.7461L41.3848 44.9961C40.834 44.4453 40.834 43.5547 41.3848 43.0098C41.9355 42.4648 42.8262 42.459 43.3711 43.0098L46.125 45.7637L52.6289 39.2539C53.1797 38.7031 54.0703 38.7031 54.6152 39.2539C55.1602 39.8047 55.166 40.6953 54.6152 41.2402L54.6211 41.2461Z" fill="#FFB033"/>
</g>
<defs>
<clipPath id="clip0_805_3523">
<rect width="55" height="49" fill="white"/>
</clipPath>
<clipPath id="clip1_805_3523">
<rect width="30" height="30" fill="white" transform="translate(33 29)"/>
</clipPath>
</defs>
</svg>
