<svg width="55" height="65" viewBox="0 0 55 65" fill="none" xmlns="http://www.w3.org/2000/svg">
<path d="M24.7273 36.75C25.6545 33.6971 27.5767 31.0939 29.4795 28.5004C29.9818 27.8209 30.4841 27.1414 30.967 26.4523C32.8795 23.7248 34 20.423 34 16.8533C34 7.54141 26.3886 0 17 0C7.61136 0 0 7.54141 0 16.8438C0 20.4135 1.12045 23.7248 3.03295 26.4428C3.51591 27.1318 4.01818 27.8113 4.52045 28.4908C6.43295 31.0844 8.35511 33.6971 9.27273 36.7404H24.7273V36.75ZM17 49C21.2693 49 24.7273 45.5738 24.7273 41.3438V39.8125H9.27273V41.3438C9.27273 45.5738 12.7307 49 17 49ZM9.27273 16.8438C9.27273 17.6859 8.57727 18.375 7.72727 18.375C6.87727 18.375 6.18182 17.6859 6.18182 16.8438C6.18182 10.9197 11.021 6.125 17 6.125C17.85 6.125 18.5455 6.81406 18.5455 7.65625C18.5455 8.49844 17.85 9.1875 17 9.1875C12.7307 9.1875 9.27273 12.6137 9.27273 16.8438Z" fill="#00A3FF"/>
<circle cx="36" cy="46" r="19" fill="#F8F6EE"/>
<path d="M36 61C39.9782 61 43.7936 59.4196 46.6066 56.6066C49.4196 53.7936 51 49.9782 51 46C51 42.0218 49.4196 38.2064 46.6066 35.3934C43.7936 32.5804 39.9782 31 36 31C32.0218 31 28.2064 32.5804 25.3934 35.3934C22.5804 38.2064 21 42.0218 21 46C21 49.9782 22.5804 53.7936 25.3934 56.6066C28.2064 59.4196 32.0218 61 36 61ZM37.1836 39.7539C38.2559 39.9062 39.3047 40.1641 40.3535 40.4277L39.7383 42.8828C38.7832 42.6426 37.834 42.4082 36.8613 42.2617C35.9004 42.1211 35.0977 42.2324 34.5586 42.4668C33.9141 42.7422 33.5039 43.416 34.1895 43.8555C34.6875 44.1719 35.4492 44.3945 36.498 44.6934L36.5449 44.7051C37.459 44.9629 38.625 45.2969 39.498 45.8945C40.6348 46.6738 41.168 47.9395 40.916 49.2988C40.6758 50.6113 39.7617 51.4727 38.666 51.918C38.209 52.1055 37.7109 52.2227 37.1895 52.2812V54.4375H34.6523V52.1582C33.9668 52.0059 33.0879 51.7246 32.5078 51.5371C32.1211 51.4141 31.7402 51.291 31.3535 51.1738C31.2188 51.1328 31.0898 51.0918 30.9551 51.0508L31.7109 48.6367C31.8398 48.6777 31.9688 48.7188 32.0977 48.7598C32.5254 48.8945 32.9531 49.0293 33.3809 49.1641C34.0898 49.3926 34.9277 49.6562 35.4023 49.7324C36.3984 49.8789 37.1953 49.791 37.7168 49.5801C38.4199 49.2988 38.7539 48.4609 38.0625 47.9922C37.4707 47.5879 36.7383 47.3887 36.041 47.2012C35.9063 47.166 35.7773 47.1309 35.6426 47.0898C34.7578 46.8379 33.6504 46.5273 32.8184 45.9941C31.6758 45.2617 31.0957 44.043 31.3418 42.6895C31.5703 41.4297 32.5078 40.5918 33.5566 40.1406C33.8965 39.9941 34.2656 39.8828 34.6465 39.8066V37.5625H37.1777V39.7539H37.1836Z" fill="#FFB033"/>
</svg>
