<svg width="77" height="68" viewBox="0 0 77 68" fill="none" xmlns="http://www.w3.org/2000/svg">
<g clip-path="url(#clip0_886_1959)">
<path d="M8.325 6.5C8.325 4.77609 9.00719 3.12279 10.2215 1.90381C11.4358 0.684819 13.0827 0 14.8 0C16.5173 0 18.1642 0.684819 19.3785 1.90381C20.5928 3.12279 21.275 4.77609 21.275 6.5C21.275 8.22391 20.5928 9.87721 19.3785 11.0962C18.1642 12.3152 16.5173 13 14.8 13C13.0827 13 11.4358 12.3152 10.2215 11.0962C9.00719 9.87721 8.325 8.22391 8.325 6.5ZM7.4 24.8045C6.24375 26.1045 5.55 27.8339 5.55 29.7143C5.55 31.5946 6.24375 33.3241 7.4 34.6241V24.8045ZM24.0963 19.0821C20.6622 22.1348 18.5 26.6036 18.5 31.5714C18.5 35.5527 19.8875 39.2089 22.2 42.0759V44.5714C22.2 46.6259 20.5466 48.2857 18.5 48.2857H11.1C9.05344 48.2857 7.4 46.6259 7.4 44.5714V41.4607C3.02938 39.3714 0 34.9027 0 29.7143C0 22.5295 5.79281 16.7143 12.95 16.7143H16.65C19.425 16.7143 21.9919 17.5848 24.0963 19.0705V19.0821ZM51.8 44.5714V42.0759C54.1125 39.2089 55.5 35.5527 55.5 31.5714C55.5 26.6036 53.3378 22.1348 49.9038 19.0705C52.0081 17.5848 54.575 16.7143 57.35 16.7143H61.05C68.2072 16.7143 74 22.5295 74 29.7143C74 34.9027 70.9706 39.3714 66.6 41.4607V44.5714C66.6 46.6259 64.9466 48.2857 62.9 48.2857H55.5C53.4534 48.2857 51.8 46.6259 51.8 44.5714ZM52.725 6.5C52.725 4.77609 53.4072 3.12279 54.6215 1.90381C55.8358 0.684819 57.4827 0 59.2 0C60.9173 0 62.5642 0.684819 63.7785 1.90381C64.9928 3.12279 65.675 4.77609 65.675 6.5C65.675 8.22391 64.9928 9.87721 63.7785 11.0962C62.5642 12.3152 60.9173 13 59.2 13C57.4827 13 55.8358 12.3152 54.6215 11.0962C53.4072 9.87721 52.725 8.22391 52.725 6.5ZM66.6 24.8045V34.6357C67.7562 33.3241 68.45 31.6063 68.45 29.7259C68.45 27.8455 67.7562 26.1161 66.6 24.8161V24.8045ZM37 0C38.9626 0 40.8448 0.782651 42.2326 2.17578C43.6204 3.56891 44.4 5.45839 44.4 7.42857C44.4 9.39875 43.6204 11.2882 42.2326 12.6814C40.8448 14.0745 38.9626 14.8571 37 14.8571C35.0374 14.8571 33.1552 14.0745 31.7674 12.6814C30.3796 11.2882 29.6 9.39875 29.6 7.42857C29.6 5.45839 30.3796 3.56891 31.7674 2.17578C33.1552 0.782651 35.0374 0 37 0ZM27.75 31.5714C27.75 33.4518 28.4438 35.1696 29.6 36.4812V26.6616C28.4438 27.9732 27.75 29.6911 27.75 31.5714ZM44.4 26.6616V36.4929C45.5563 35.1812 46.25 33.4634 46.25 31.583C46.25 29.7027 45.5563 27.9732 44.4 26.6732V26.6616ZM51.8 31.5714C51.8 36.7598 48.7706 41.2286 44.4 43.3179V48.2857C44.4 50.3402 42.7466 52 40.7 52H33.3C31.2534 52 29.6 50.3402 29.6 48.2857V43.3179C25.2294 41.2286 22.2 36.7598 22.2 31.5714C22.2 24.3866 27.9928 18.5714 35.15 18.5714H38.85C46.0072 18.5714 51.8 24.3866 51.8 31.5714Z" fill="#00A3FF"/>
</g>
<g clip-path="url(#clip1_886_1959)">
<circle cx="56.5" cy="48.5" r="19.5" fill="#F8F6EE"/>
<path d="M57 64C60.9782 64 64.7936 62.4196 67.6066 59.6066C70.4196 56.7936 72 52.9782 72 49C72 45.0218 70.4196 41.2064 67.6066 38.3934C64.7936 35.5804 60.9782 34 57 34C53.0218 34 49.2064 35.5804 46.3934 38.3934C43.5804 41.2064 42 45.0218 42 49C42 52.9782 43.5804 56.7936 46.3934 59.6066C49.2064 62.4196 53.0218 64 57 64ZM55.5938 54.1562V50.4062H51.8438C51.0645 50.4062 50.4375 49.7793 50.4375 49C50.4375 48.2207 51.0645 47.5938 51.8438 47.5938H55.5938V43.8438C55.5938 43.0645 56.2207 42.4375 57 42.4375C57.7793 42.4375 58.4062 43.0645 58.4062 43.8438V47.5938H62.1562C62.9355 47.5938 63.5625 48.2207 63.5625 49C63.5625 49.7793 62.9355 50.4062 62.1562 50.4062H58.4062V54.1562C58.4062 54.9355 57.7793 55.5625 57 55.5625C56.2207 55.5625 55.5938 54.9355 55.5938 54.1562Z" fill="#FFB033"/>
</g>
<defs>
<clipPath id="clip0_886_1959">
<rect width="77" height="49" fill="white"/>
</clipPath>
<clipPath id="clip1_886_1959">
<rect width="39" height="39" fill="white" transform="translate(37 29)"/>
</clipPath>
</defs>
</svg>
