<svg width="176" height="32" viewBox="0 0 176 32" fill="none" xmlns="http://www.w3.org/2000/svg">
<path d="M64.6875 21.5244H66.6115V25.8764H71.8415V21.5244H73.7655V31.9971H71.8415V27.5811H66.6115V31.9971H64.6875V21.5244Z" fill="white"/>
<path d="M78.4316 21.5244H86.5598V23.171H80.3556V25.8939H85.8353V27.5404H80.3556V30.3506H86.639V31.9971H78.4316V21.5244Z" fill="white"/>
<path d="M94.3581 21.5244H96.1299L100.915 31.9971H98.894L97.792 29.4895H92.6472L91.5269 31.9971H89.5664L94.3581 21.5244ZM97.0918 27.8662L95.2105 23.7062L93.3474 27.8662H97.0918Z" fill="white"/>
<path d="M104.404 21.5244H106.334V30.3215H112.094V31.9971H104.404V21.5244Z" fill="white"/>
<path d="M116.502 23.2291H113.025V21.5244H121.921V23.2291H118.444V31.9971H116.502V23.2291Z" fill="white"/>
<path d="M125.629 21.5244H127.553V25.8764H132.783V21.5244H134.707V31.9971H132.783V27.5811H127.553V31.9971H125.629V21.5244Z" fill="white"/>
<path fill-rule="evenodd" clip-rule="evenodd" d="M41.4613 1.52164L56.9384 27.6511C57.1358 27.9838 57.2627 28.3504 57.3117 28.7299C57.3607 29.1095 57.3309 29.4946 57.2241 29.8631C57.1172 30.2317 56.9353 30.5764 56.6888 30.8778C56.4424 31.1791 56.1361 31.431 55.7877 31.6191C55.3291 31.8674 54.8109 31.9977 54.2838 31.9973H18.0996L36.1521 1.52164C36.3484 1.18431 36.613 0.887681 36.9305 0.649038C37.2479 0.410395 37.6119 0.234507 38.0012 0.131622C38.3905 0.0287361 38.7974 0.000909885 39.198 0.0497643C39.5987 0.0986186 39.9852 0.223177 40.335 0.416182C40.8064 0.682646 41.1952 1.06418 41.4613 1.52164Z" fill="white"/>
<path fill-rule="evenodd" clip-rule="evenodd" d="M21.3446 1.4573L27.6097 11.8311L15.5057 31.9969H3.19466C2.38727 31.9969 1.61295 31.6904 1.04204 31.1449C0.471125 30.5993 0.150391 29.8594 0.150391 29.0878C0.150943 28.5861 0.287276 28.0931 0.546146 27.6566L16.0476 1.47476C16.3131 1.02706 16.6981 0.654668 17.1634 0.395586C17.6287 0.136504 18.1576 0 18.6961 0C19.2346 0 19.7635 0.136504 20.2288 0.395586C20.694 0.654668 21.0791 1.02706 21.3446 1.47476V1.4573Z" fill="white"/>
<path d="M80.9439 17.335V5.1168L74.5814 15.2986H73.4306L67.1229 5.19825V17.335H64.6875V0.578613H66.7393L74.0456 12.3546L81.2727 0.578613H83.3245V17.335H80.9439Z" fill="white"/>
<path d="M90.3344 16.4099C88.946 15.6988 87.7895 14.6359 86.9918 13.3379C86.1758 12.0108 85.7547 10.4959 85.7741 8.95683C85.7547 7.41773 86.1758 5.90283 86.9918 4.57574C87.7911 3.27744 88.947 2.21303 90.3344 1.49792C91.8088 0.765614 93.4461 0.383301 95.1078 0.383301C96.7695 0.383301 98.4068 0.765614 99.8812 1.49792C101.264 2.20914 102.416 3.2698 103.212 4.56411C104.028 5.89516 104.449 7.41398 104.429 8.95683C104.449 10.4997 104.028 12.0185 103.212 13.3496C102.416 14.6423 101.264 15.701 99.8812 16.4099C98.4068 17.1422 96.7695 17.5245 95.1078 17.5245C93.4461 17.5245 91.8088 17.1422 90.3344 16.4099ZM98.5904 14.5423C99.6086 13.9926 100.451 13.188 101.026 12.215C101.623 11.2121 101.929 10.0755 101.915 8.92192C101.929 7.76832 101.623 6.63178 101.026 5.62883C100.451 4.65586 99.6086 3.85123 98.5904 3.30156C97.5293 2.75555 96.3369 2.48474 95.1322 2.5161C93.9109 2.50115 92.7066 2.78986 91.6373 3.35392C90.6186 3.90289 89.7764 4.70769 89.2019 5.6812C88.6052 6.68414 88.2985 7.82068 88.313 8.97429C88.2985 10.1279 88.6052 11.2644 89.2019 12.2674C89.7764 13.2409 90.6186 14.0457 91.6373 14.5947C92.71 15.1466 93.9142 15.4232 95.1322 15.3976C96.3435 15.4076 97.5363 15.1126 98.5904 14.5423Z" fill="white"/>
<path d="M106.871 0.578667H114.256C115.967 0.54623 117.661 0.907418 119.194 1.63176C120.579 2.29177 121.737 3.31753 122.531 4.58739C123.349 5.90935 123.77 7.42113 123.749 8.95685C123.769 10.4925 123.348 12.004 122.531 13.3263C121.738 14.5983 120.58 15.6262 119.194 16.2878C117.661 17.0121 115.967 17.3733 114.256 17.3408H106.871V0.578667ZM114.11 15.2521C115.407 15.2794 116.691 15.0079 117.855 14.4608C118.891 13.9693 119.756 13.2014 120.345 12.2499C120.942 11.2478 121.245 10.11 121.222 8.95685C121.245 7.80371 120.942 6.66591 120.345 5.66376C119.756 4.71229 118.891 3.94435 117.855 3.45285C116.691 2.90575 115.407 2.63435 114.11 2.66158H109.373V15.2521H114.11Z" fill="white"/>
<path d="M139.53 15.2521V17.335H126.793V0.578613H139.171V2.66152H129.314V7.80479H138.105V9.84116H129.314V15.2521H139.53Z" fill="white"/>
<path d="M154.562 17.335L150.775 12.215C150.313 12.2499 149.941 12.2673 149.673 12.2673H145.344V17.335H142.836V0.578613H149.673C151.942 0.578613 153.73 1.09643 155.037 2.13207C155.682 2.65333 156.193 3.30866 156.532 4.04786C156.871 4.78707 157.028 5.59056 156.992 6.39679C157.042 7.57646 156.701 8.74109 156.018 9.72479C155.311 10.66 154.311 11.3552 153.162 11.7088L157.321 17.335H154.562ZM153.235 9.21861C153.65 8.87345 153.976 8.44123 154.187 7.95575C154.399 7.47027 154.489 6.94468 154.453 6.42007C154.49 5.89707 154.4 5.37292 154.188 4.88917C153.977 4.40543 153.651 3.97539 153.235 3.63316C152.172 2.9155 150.881 2.57215 149.582 2.66152H145.32V10.2252H149.582C150.885 10.3074 152.178 9.9513 153.235 9.21861Z" fill="white"/>
<path d="M175.501 0.578613V17.335H173.449L162.928 4.83752V17.335H160.42V0.578613H162.478L172.999 13.0761V0.578613H175.501Z" fill="white"/>
</svg>
