<svg width="58" height="32" viewBox="0 0 58 32" fill="none" xmlns="http://www.w3.org/2000/svg">
<path fill-rule="evenodd" clip-rule="evenodd" d="M41.311 1.52164L56.788 27.6511C56.9855 27.9838 57.1123 28.3504 57.1613 28.7299C57.2103 29.1095 57.1806 29.4946 57.0737 29.8631C56.9668 30.2317 56.7849 30.5764 56.5384 30.8778C56.292 31.1791 55.9857 31.431 55.6373 31.6191C55.1787 31.8674 54.6605 31.9977 54.1334 31.9973H17.9492L36.0017 1.52164C36.198 1.18431 36.4626 0.887681 36.7801 0.649038C37.0976 0.410395 37.4615 0.234507 37.8508 0.131622C38.2401 0.0287361 38.647 0.000909885 39.0476 0.0497643C39.4483 0.0986186 39.8348 0.223177 40.1846 0.416182C40.656 0.682646 41.0448 1.06418 41.311 1.52164Z" fill="white"/>
<path fill-rule="evenodd" clip-rule="evenodd" d="M21.1942 1.4573L27.4593 11.8311L15.3553 31.9969H3.04427C2.23688 31.9969 1.46256 31.6904 0.891646 31.1449C0.320735 30.5993 0 29.8594 0 29.0878C0.000552704 28.5861 0.136885 28.0931 0.395755 27.6566L15.8972 1.47476C16.1627 1.02706 16.5477 0.654668 17.013 0.395586C17.4783 0.136504 18.0072 0 18.5457 0C19.0842 0 19.6131 0.136504 20.0784 0.395586C20.5437 0.654668 20.9287 1.02706 21.1942 1.47476V1.4573Z" fill="white"/>
</svg>
