<svg width="56" height="33" viewBox="0 0 56 33" fill="none" xmlns="http://www.w3.org/2000/svg">
<g clip-path="url(#clip0_805_1991)">
<path fill-rule="evenodd" clip-rule="evenodd" d="M40.4539 1.57004L55.6103 28.518C56.4224 29.9593 55.9197 31.7906 54.4876 32.6079C54.4864 32.6085 54.4846 32.6097 54.4834 32.6103C54.0344 32.8665 53.527 33.0009 53.0107 33.0003H17.5762L35.2547 1.57004C36.0548 0.12213 37.8698 -0.399308 39.3091 0.405951C39.3234 0.413751 39.3371 0.421552 39.3508 0.429952C39.8123 0.704772 40.1933 1.0984 40.4539 1.57004Z" fill="#00A3FF"/>
<path fill-rule="evenodd" clip-rule="evenodd" d="M20.7551 1.50389L26.8904 12.2027L15.0372 33.0002H2.9812C1.33498 33.0002 0 31.6567 0 30C0 29.4827 0.134154 28.9739 0.387556 28.5239L15.5678 1.52189C16.3799 0.0805832 18.199 -0.425854 19.6312 0.390806C20.1004 0.658425 20.4892 1.04965 20.7551 1.52189V1.50389Z" fill="#80D1FF"/>
</g>
<defs>
<clipPath id="clip0_805_1991">
<rect width="56" height="33" fill="white"/>
</clipPath>
</defs>
</svg>
